<svg xmlns="http://www.w3.org/2000/svg" viewBox="0 0 36 36">
<g id="rattail" transform="
                translate(11 12)
                scale(.6)
                rotate(0 18 18)
                ">
    <path fill="#EA596E" d="M30 36H6c-.552 0-1-.447-1-1s.448-1 1-1h24c2.542 0 4-1.367 4-3.75 0-1.537-1.643-3.25-4-3.25h-7c-.553 0-1-.447-1-1s.447-1 1-1h7c3.589 0 6 2.715 6 5.25 0 3.493-2.355 5.75-6 5.75z"/>
</g>
<path fill="#66757F" d="M19.723 6.552c2.264 0 6.666.744 6.666 3.473 0 1.116-.775 2.077-1.922 2.077-1.272 0-2.139-1.085-4.744-1.085-3.844 0-5.829 3.256-5.829 7.038 0 3.689 2.015 6.852 5.829 6.852 2.605 0 3.658-1.302 4.93-1.302 1.396 0 2.047 1.395 2.047 2.107 0 2.977-4.682 3.659-6.976 3.659-6.294 0-10.666-4.992-10.666-11.41-.001-6.448 4.34-11.409 10.665-11.409z"/>
<g id="rathead" transform="
                translate(15 5)
                scale(.4)
                rotate(180 18 18)
                ">
    <path fill="#66757F" d="M12 24.5c0-3.037 3.604-5.938 1-7.5-3.407-2.044-6.879 4.293-9 5-3 1-4 3.407-4 5 0 1.838 1.986 1.725 5 2 1.906.175 5.594.125 9 1 2.942.756-2-2.462-2-5.5z"/><path fill="#66757F" d="M9.781 17.844c0-2.594-2.375-3.219-1.188-5.031.706-1.078 2.588-.635 3.051-.582-.037 1.332 1.605 1.875 2.054 1.049.378.372.71.83.962 1.361.914 1.923-.461 4.49-1.958 5.201-1.494.711-2.921.132-2.921-1.998z"/><path fill="#E6AAAA" d="M13.633 16.14c.084 1.279-.481 2.67-1.396 2.915-.914.246-1.277-.728-1.608-1.961-.331-1.233-.95-2.686-.036-2.932.915-.246 2.931.317 3.04 1.978z"/><circle fill="#292F33" cx="8" cy="23" r="1"/><path fill="#66757F" d="M10.594 18.312c-1.26-1.717-2.834-1.977-4.49-1.979-.729 0-.687.479-.104.542 1.076.115 1.963.406 2.077.667.076.175-.702-.042-1.431-.042-1.167 0-1.042.298-.167.521 1.875.479 1.833 1.219 2.896 1.188 1.063-.033 1.219-.897 1.219-.897z"/>
</g>
</svg>