<svg xmlns="http://www.w3.org/2000/svg" viewBox="0 0 36 36">
<g id="rattail" transform="
                translate(12 12)
                scale(.6)
                rotate(0 18 18)
                ">
    <path fill="#EA596E" d="M30 36H6c-.552 0-1-.447-1-1s.448-1 1-1h24c2.542 0 4-1.367 4-3.75 0-1.537-1.643-3.25-4-3.25h-7c-.553 0-1-.447-1-1s.447-1 1-1h7c3.589 0 6 2.715 6 5.25 0 3.493-2.355 5.75-6 5.75z"/>
</g>
<path fill="#66757F" d="M23.459 28.008c-1.519.868-3.348 1.364-5.457 1.364-6.294 0-10.666-4.992-10.666-11.41 0-6.449 4.341-11.41 10.666-11.41 6.232 0 10.666 5.116 10.666 11.41 0 2.728-.713 5.209-2.078 7.162l1.768 1.52c.59.527 1.086 1.023 1.086 1.892 0 1.085-1.086 1.953-2.139 1.953-.684 0-1.24-.279-2.078-.992l-1.768-1.489zm-.371-6.077c.526-1.179.744-2.542.744-3.969 0-3.689-1.954-7.131-5.83-7.131-3.876 0-5.829 3.379-5.829 7.131 0 3.782 1.891 7.132 5.829 7.132.713 0 1.365-.094 1.984-.218l-1.116-1.085c-.341-.311-.589-.807-.589-1.24 0-1.209.838-2.232 2.108-2.232.435 0 .806.155 1.179.403l1.52 1.209z"/>
<g id="rathead" transform="
                translate(16 13.8)
                scale(.4)
                rotate(35 18 18)
                ">
    <path fill="#66757F" d="M12 24.5c0-3.037 3.604-5.938 1-7.5-3.407-2.044-6.879 4.293-9 5-3 1-4 3.407-4 5 0 1.838 1.986 1.725 5 2 1.906.175 5.594.125 9 1 2.942.756-2-2.462-2-5.5z"/><path fill="#66757F" d="M9.781 17.844c0-2.594-2.375-3.219-1.188-5.031.706-1.078 2.588-.635 3.051-.582-.037 1.332 1.605 1.875 2.054 1.049.378.372.71.83.962 1.361.914 1.923-.461 4.49-1.958 5.201-1.494.711-2.921.132-2.921-1.998z"/><path fill="#E6AAAA" d="M13.633 16.14c.084 1.279-.481 2.67-1.396 2.915-.914.246-1.277-.728-1.608-1.961-.331-1.233-.95-2.686-.036-2.932.915-.246 2.931.317 3.04 1.978z"/><circle fill="#292F33" cx="8" cy="23" r="1"/><path fill="#66757F" d="M10.594 18.312c-1.26-1.717-2.834-1.977-4.49-1.979-.729 0-.687.479-.104.542 1.076.115 1.963.406 2.077.667.076.175-.702-.042-1.431-.042-1.167 0-1.042.298-.167.521 1.875.479 1.833 1.219 2.896 1.188 1.063-.033 1.219-.897 1.219-.897z"/>
</g>
</svg>